# xmcd
# Copyright (C) 1995-1998 Ti Kan
#
# Track frame offsets:
#       150
#       13386
#       26018
#       40380
#       55098
#       73052
#       87192
#       99337
#       115870
#       140904
#       154049
#
# Disc length: 2300 seconds
#
# Revision: 0
# Processed by: cddbd v1.5.2PL0 Copyright (c) Steve Scherf et al.
# Submitted via: CD-Import v1.0
#
DISCID=9508fa0b
DTITLE=Katel - Raides A La Ville
DYEAR=07
DGENRE=
TTITLE0=One Day
TTITLE1=Carapace
TTITLE2=Charnelle
TTITLE3=Les Vautours
TTITLE4=Tigres En Papier
TTITLE5=La Vieille
TTITLE6=Le Voyage Impossible
TTITLE7=Human Behaviour
TTITLE8=Quel Animal Vit...
TTITLE9=Dimanche
TTITLE10=Raides A La Ville
EXTD=
EXTT0=
EXTT1=
EXTT2=
EXTT3=
EXTT4=
EXTT5=
EXTT6=
EXTT7=
EXTT8=
EXTT9=
EXTT10=
PLAYORDER=
